<?xml version="1.0" encoding="UTF-8"?>
<svg version="1.1" xmlns="http://www.w3.org/2000/svg" width="608" height="608">
<path d="M0 0 C1.04491016 -0.00467997 2.08982031 -0.00935994 3.16639441 -0.01418173 C6.63748521 -0.02606485 10.10817629 -0.01670048 13.57926941 -0.00723267 C16.08031442 -0.0113014 18.58135763 -0.01664497 21.08239746 -0.02316284 C27.1529773 -0.03539344 33.22340265 -0.03364281 39.29397634 -0.02492492 C44.23258089 -0.01812858 49.1711543 -0.01724006 54.10976219 -0.02049637 C55.16720214 -0.02118592 55.16720214 -0.02118592 56.24600452 -0.0218894 C57.67849941 -0.02284865 59.1109943 -0.0238213 60.54348918 -0.02480717 C73.95517098 -0.033348 87.36679111 -0.02354849 100.77846279 -0.00740607 C112.26092402 0.00598716 123.74329421 0.0036747 135.22575378 -0.01016235 C148.58730318 -0.02625649 161.94879858 -0.03251495 175.31035632 -0.02332556 C176.7382731 -0.02237001 178.16618988 -0.0214269 179.59410667 -0.02049637 C180.29650407 -0.02003354 180.99890146 -0.01957072 181.72258363 -0.01909386 C186.64790202 -0.01651479 191.57318587 -0.02085166 196.49849892 -0.02793503 C203.14291917 -0.03728136 209.78719524 -0.03052302 216.4316082 -0.01325226 C218.86230817 -0.00930439 221.29302265 -0.01039212 223.72371674 -0.01704025 C246.55521155 -0.07370114 266.4660477 2.14937745 283.80265808 18.63095093 C296.34542568 31.8680503 302.38358797 48.16103591 302.31335449 66.1771698 C302.31718004 67.22994934 302.32100559 68.28272889 302.32494706 69.36741084 C302.33522327 72.87693995 302.3312951 76.3863038 302.32731628 79.89584351 C302.33166575 82.41954194 302.33684968 84.94323905 302.34280396 87.4669342 C302.35479244 93.59991288 302.35734831 99.73283115 302.35500369 105.86581925 C302.35321691 110.85406498 302.35497788 115.84229746 302.35922813 120.83054161 C302.35982332 121.54190073 302.36041851 122.25325984 302.36103174 122.98617529 C302.36224356 124.43155872 302.36345769 125.87694213 302.36467411 127.32232555 C302.37553849 140.86268294 302.37339251 154.40301539 302.36728927 167.94337418 C302.36212223 180.31165832 302.37337187 192.67986366 302.39238749 205.04813222 C302.41179258 217.76790212 302.42001714 230.48763478 302.41626424 243.20741957 C302.41435609 250.34054928 302.4168018 257.47361193 302.43097878 264.60672951 C302.44418065 271.3167867 302.44159636 278.02666114 302.42856789 284.73672676 C302.42620631 287.19406946 302.42892171 289.65142329 302.43719101 292.1087532 C302.44769548 295.47394352 302.43952771 298.83860915 302.42687988 302.20378113 C302.43425417 303.16655261 302.44162845 304.1293241 302.4492262 305.12127048 C302.31647936 322.01378036 295.45349335 337.85059274 283.82170105 349.99203491 C269.67788266 363.87913181 251.97242278 368.53189818 232.6693573 368.52812195 C231.64883931 368.53179864 230.62832132 368.53547532 229.57687855 368.53926343 C226.17036237 368.55024263 222.76387676 368.55413428 219.35734558 368.55795288 C216.90924992 368.56422189 214.46115521 368.57086908 212.01306152 368.5778656 C204.67773232 368.59704438 197.34241123 368.60768614 190.00706434 368.61659339 C186.54436626 368.62098759 183.08166968 368.62635137 179.61897278 368.63158226 C168.09451617 368.64858594 156.57006047 368.66307796 145.04559326 368.670331 C142.06015522 368.67224058 139.07471719 368.67416096 136.08927917 368.67611694 C135.34735585 368.67660068 134.60543252 368.67708442 133.84102666 368.67758282 C121.83425708 368.68587537 109.82758736 368.71120301 97.82086134 368.74369762 C85.46723328 368.776856 73.11365583 368.79478759 60.75998306 368.79797524 C53.8345901 368.80013205 46.90934286 368.80875847 39.98399353 368.83443642 C33.46354375 368.85855883 26.94328425 368.86191434 20.42279625 368.85167503 C18.03969133 368.85118174 15.65657315 368.85744077 13.27350807 368.87123108 C-9.23344085 368.99410826 -28.64270733 366.47047241 -45.33015442 350.02157593 C-46.62566223 348.71446655 -46.62566223 348.71446655 -47.94734192 347.38095093 C-48.54288879 346.81891968 -49.13843567 346.25688843 -49.75202942 345.67782593 C-53.40988409 341.92111032 -55.73290308 337.36982936 -58.13484192 332.75595093 C-58.46838684 332.12922485 -58.80193176 331.50249878 -59.14558411 330.85678101 C-66.12114907 316.81257331 -65.37746084 301.97763386 -65.33552551 286.70321655 C-65.33959565 284.21010611 -65.34494001 281.71699747 -65.35145569 279.22389221 C-65.36367059 273.18065896 -65.36194447 267.13758105 -65.35321777 261.09435403 C-65.34641588 256.17867199 -65.34553527 251.26302123 -65.34878922 246.34733582 C-65.34924891 245.64513347 -65.34970861 244.94293112 -65.35018224 244.21944991 C-65.35114151 242.79250935 -65.35211415 241.3655688 -65.35310002 239.93862826 C-65.3616349 226.58848699 -65.35184975 213.23840773 -65.33569892 199.88827664 C-65.32229746 188.45725553 -65.32462609 177.02632585 -65.3384552 165.5953064 C-65.35454474 152.28978584 -65.3608111 138.9843195 -65.35161841 125.67879057 C-65.35066286 124.2573824 -65.34971974 122.83597422 -65.34878922 121.41456604 C-65.34832639 120.71538202 -65.34786356 120.016198 -65.34738671 119.29582658 C-65.34480692 114.39155557 -65.34914588 109.48731923 -65.35622787 104.58305359 C-65.36556754 97.97061992 -65.35882654 91.35833125 -65.3415451 84.74590492 C-65.33759459 82.32607114 -65.33868955 79.90622277 -65.3453331 77.48639488 C-65.4014583 54.95825684 -62.95638533 36.65863551 -46.94734192 19.38095093 C-45.98441223 18.3368103 -45.98441223 18.3368103 -45.00202942 17.27157593 C-40.52303168 12.87773024 -35.62005987 9.89585426 -30.07234192 7.06845093 C-29.43683411 6.74280151 -28.80132629 6.4171521 -28.14656067 6.08163452 C-19.04793244 1.68106559 -10.05726027 -0.0705138 0 0 Z " fill="#5358FB" transform="translate(281.9473419189453,119.61904907226563)"/>
<path d="M0 0 C2 1 2 1 2.62014771 2.71905518 C2.87995926 3.83893829 2.87995926 3.83893829 3.14501953 4.98144531 C3.34507599 5.82612366 3.54513245 6.670802 3.75125122 7.54107666 C4.06387405 8.92066559 4.06387405 8.92066559 4.3828125 10.328125 C4.60194305 11.26928162 4.82107361 12.21043823 5.04684448 13.18011475 C5.50969452 15.17660363 5.96840664 17.17405555 6.42333984 19.17236328 C7.1194152 22.22550384 7.83010983 25.27495853 8.54296875 28.32421875 C8.99046266 30.26281807 9.43710493 32.2016142 9.8828125 34.140625 C10.20150803 35.50806854 10.20150803 35.50806854 10.52664185 36.90313721 C10.72039398 37.76042419 10.91414612 38.61771118 11.11376953 39.50097656 C11.28538605 40.25074768 11.45700256 41.0005188 11.63381958 41.77301025 C12.03545576 44.21563036 12.06168807 46.52887468 12 49 C7.71620357 48.28739906 3.74906147 46.93078264 -0.3125 45.4375 C-0.95767578 45.20353516 -1.60285156 44.96957031 -2.26757812 44.72851562 C-3.84621219 44.15552993 -5.42327026 43.57820536 -7 43 C-7.25563721 44.28076416 -7.51127441 45.56152832 -7.7746582 46.88110352 C-8.9345805 52.08240525 -10.6897463 56.93798919 -12.60546875 61.90234375 C-13.1396769 63.31086861 -13.1396769 63.31086861 -13.68467712 64.74784851 C-14.4497003 66.76433158 -15.21725578 68.77985544 -15.98712158 70.79449463 C-18.03862894 76.16604959 -20.06874786 81.54565698 -22.09765625 86.92578125 C-22.71661774 88.56628448 -22.71661774 88.56628448 -23.3480835 90.2399292 C-27.39384366 100.99251135 -31.28019723 111.79923383 -35.125 122.625 C-35.74802078 124.37389897 -36.37114733 126.12276026 -36.99438477 127.87158203 C-39.53616534 135.01250781 -42.06085845 142.1582668 -44.53125 149.32421875 C-44.89460449 150.36304199 -45.25795898 151.40186523 -45.63232422 152.47216797 C-46.26077457 154.27034587 -46.87838931 156.07237883 -47.48095703 157.87939453 C-49.44168526 163.45117994 -51.91713609 167.05106305 -57.0390625 170.2890625 C-60.67144119 171.60598067 -64.20361125 171.54045812 -68 171 C-72.71860788 168.55331443 -75.94112531 165.74471466 -77.87207031 160.73950195 C-78.22156738 159.50139771 -78.22156738 159.50139771 -78.578125 158.23828125 C-78.84802246 157.29799072 -79.11791992 156.3577002 -79.39599609 155.38891602 C-79.67781738 154.37369873 -79.95963867 153.35848145 -80.25 152.3125 C-80.70560303 150.70942993 -80.70560303 150.70942993 -81.17041016 149.07397461 C-82.12176595 145.71822528 -83.06117651 142.35927396 -84 139 C-84.56441352 137.00501281 -85.12949499 135.01021445 -85.6953125 133.015625 C-87.14613154 127.88559644 -88.57720866 122.7503077 -89.99951172 117.61230469 C-90.72579869 114.99001529 -91.45399224 112.36830006 -92.18408203 109.74707031 C-93.23418588 105.9751205 -94.27834155 102.20156275 -95.31890869 98.42697144 C-95.72893873 96.94254941 -96.14066259 95.45859415 -96.55413818 93.97512817 C-97.13343041 91.89488902 -97.70615331 89.81294482 -98.27734375 87.73046875 C-98.60984131 86.52801514 -98.94233887 85.32556152 -99.28491211 84.08666992 C-100 81 -100 81 -100 77 C-100.66 77 -101.32 77 -102 77 C-102.19199226 78.5206884 -102.19199226 78.5206884 -102.38786316 80.07209778 C-102.96519885 83.77669122 -103.78551224 87.23834238 -104.79418945 90.84643555 C-105.0627475 91.81391975 -105.0627475 91.81391975 -105.33673096 92.8009491 C-105.92456117 94.91411456 -106.51874431 97.02543132 -107.11328125 99.13671875 C-107.52855525 100.62245922 -107.94352283 102.10828537 -108.35820007 103.5941925 C-109.22713722 106.7041287 -110.09911218 109.81319157 -110.97338867 112.92163086 C-112.08447949 116.87261473 -113.18904183 120.82538601 -114.29140949 124.77881145 C-115.14794416 127.84841431 -116.00750062 130.91716471 -116.86797142 133.98566628 C-117.27575967 135.44084343 -117.68276651 136.89623982 -118.0889225 138.3518734 C-125.80685058 165.9832327 -125.80685058 165.9832327 -132.8828125 170.09375 C-136.54349557 171.66068445 -140.09713746 171.54300696 -144 171 C-149.55844186 168.2732172 -152.68944637 164.33640343 -154.91558838 158.6690979 C-155.86005088 155.87214125 -156.74048686 153.06202028 -157.6015625 150.23828125 C-157.92410004 149.21067184 -158.24663757 148.18306244 -158.57894897 147.12431335 C-159.60338217 143.85646244 -160.61501481 140.58484238 -161.625 137.3125 C-162.6437949 134.03001013 -163.66535598 130.74844684 -164.69247437 127.46855164 C-165.32989855 125.43129492 -165.96225693 123.39244483 -166.58901978 121.35188293 C-166.87626923 120.43050034 -167.16351868 119.50911774 -167.45947266 118.55981445 C-167.70944 117.74962357 -167.95940735 116.93943268 -168.21694946 116.10469055 C-169.00193238 113.74820585 -169.00193238 113.74820585 -171 111 C-171.32871094 111.46148437 -171.65742188 111.92296875 -171.99609375 112.3984375 C-182.31265074 126.5452609 -195.0818638 137.25615789 -208.8059082 147.91674805 C-214.01941396 151.97690763 -219.07852959 156.2014325 -224.08984375 160.5078125 C-225.83527538 162.00255798 -227.59423296 163.48202149 -229.37890625 164.9296875 C-235.13937592 169.6736037 -240.24508085 174.57367551 -241.54296875 182.18359375 C-241.80774952 188.37373875 -241.3515765 193.39067171 -237.53125 198.41015625 C-232.95462373 203.16190853 -229.38377728 204.23804835 -222.9375 204.4375 C-218.24920408 204.29080739 -215.02758219 203.54373612 -211 201 C-210.34 201 -209.68 201 -209 201 C-208.731875 200.46375 -208.46375 199.9275 -208.1875 199.375 C-207.28746142 197.57492284 -206.36716493 195.78495667 -205.4375 194 C-203.12929829 189.18288338 -202.88788766 185.42650416 -202.89453125 180.07421875 C-202.88107274 178.70636446 -202.86604913 177.33852483 -202.84960938 175.97070312 C-202.82682771 173.83094179 -202.81246882 171.69284458 -202.82495117 169.55297852 C-202.88238061 156.11604171 -202.88238061 156.11604171 -199.3125 151.828125 C-197.6730957 150.3190918 -197.6730957 150.3190918 -196 149 C-195.02417969 148.12472656 -194.04835938 147.24945313 -193.04296875 146.34765625 C-192.10066406 145.59355469 -191.15835938 144.83945312 -190.1875 144.0625 C-188.75470703 142.90427734 -188.75470703 142.90427734 -187.29296875 141.72265625 C-185 140 -185 140 -184 140 C-183.89768927 146.88260037 -183.82815651 153.76500112 -183.78027344 160.64819336 C-183.76028959 162.98453093 -183.73309312 165.32081933 -183.69824219 167.65698242 C-183.23284999 199.6800722 -183.23284999 199.6800722 -194 211 C-194.66 211.69996094 -195.32 212.39992188 -196 213.12109375 C-204.69712297 221.58525807 -213.62137893 223.61560953 -225.43505859 223.47094727 C-235.77150264 223.05997496 -243.56779897 219.20395686 -251 212 C-257.79779204 203.99102007 -261.79154181 194.23748354 -261.3125 183.68359375 C-259.2505004 165.97617216 -246.84460751 154.86390376 -233.65136719 144.32617188 C-231.8237121 142.85842758 -230.00882485 141.37580569 -228.1953125 139.890625 C-221.90841203 134.74700507 -215.59961763 129.65586487 -209.125 124.75 C-195.5096891 114.328404 -179.07216399 101.06284372 -176 83 C-175.88575833 81.29434533 -175.82525693 79.58442864 -175.8125 77.875 C-175.79832031 77.00617188 -175.78414063 76.13734375 -175.76953125 75.2421875 C-175.78256395 72.79670274 -175.78256395 72.79670274 -178 71 C-180.60280568 71.32041397 -180.60280568 71.32041397 -183 72 C-183.07476562 72.81082031 -183.14953125 73.62164062 -183.2265625 74.45703125 C-184.87780282 88.36306488 -191.18717015 97.44588883 -201 107 C-201.33 107 -201.66 107 -202 107 C-202.12419787 101.30753414 -202.2146204 95.61586803 -202.2746582 89.92236328 C-202.29970241 87.98830413 -202.33374811 86.05433869 -202.37719727 84.12060547 C-202.4382965 81.33016769 -202.46631051 78.5409879 -202.48828125 75.75 C-202.52699089 74.466698 -202.52699089 74.466698 -202.56648254 73.1574707 C-202.56936094 66.90575638 -200.9355222 62.86193476 -197 58 C-191.13811339 52.56703192 -186.77496726 51.59709966 -178.91015625 51.75 C-173.97318807 52.17411539 -171.21148394 54.02490317 -167.4375 57.0625 C-162.22624911 63.34272543 -159.91971441 69.46666667 -158.75 77.5078125 C-157.02371113 88.17009866 -153.82657089 98.32961137 -150.625 108.625 C-150.05381218 110.49191992 -149.48349624 112.35910682 -148.9140625 114.2265625 C-145.75824673 124.53628757 -142.46060871 134.78867549 -139 145 C-138.64035912 143.53845993 -138.64035912 143.53845993 -138.27345276 142.0473938 C-135.90525294 132.47078747 -133.39848477 122.9401649 -130.77734375 113.4296875 C-130.49058368 112.38725576 -130.49058368 112.38725576 -130.19803047 111.3237648 C-129.19168271 107.66577463 -128.18314083 104.00839849 -127.17260742 100.3515625 C-126.13602715 96.59879507 -125.10713548 92.84396287 -124.07987118 89.0886364 C-123.28018167 86.17061402 -122.47492631 83.2541487 -121.66815376 80.33807755 C-121.28615536 78.95365288 -120.90621584 77.56865828 -120.52845573 76.18307114 C-120.00135665 74.25177374 -119.4655665 72.32285479 -118.92944336 70.39404297 C-118.62840195 69.3009079 -118.32736053 68.20777283 -118.01719666 67.08151245 C-115.88481726 60.62164688 -113.16720689 55.23945344 -107 52 C-102.07310482 51.13179354 -97.70981264 51.30879915 -93.0625 53.1875 C-83.74414831 61.37635451 -81.84637804 74.71177538 -78.7421875 86.265625 C-78.34955562 87.71298546 -77.95649101 89.1602286 -77.5630188 90.60736084 C-76.53715705 94.38459457 -75.51682302 98.16329851 -74.49780273 101.94238281 C-73.46132458 105.78275581 -72.42003612 109.62182345 -71.37890625 113.4609375 C-70.20701567 117.78227372 -69.0354808 122.1036985 -67.86837769 126.42633057 C-67.69049713 127.08457825 -67.51261658 127.74282593 -67.3293457 128.42102051 C-66.85153579 130.18946247 -66.37421909 131.95803766 -65.89694214 133.72662354 C-64.95647695 137.15883671 -63.98356407 140.57992334 -63 144 C-58.54104132 132.30810998 -54.33904431 120.53472103 -50.193573 108.72851562 C-41.7533431 84.70875184 -32.96804924 60.82714447 -24 37 C-27.24863429 34.83424381 -30.60622857 33.37647589 -34.1875 31.875 C-35.16879883 31.45927734 -35.16879883 31.45927734 -36.16992188 31.03515625 C-37.77879012 30.35402955 -39.38924215 29.67664597 -41 29 C-36.98112131 24.64766206 -32.57926313 21.50092677 -27.63671875 18.26171875 C-26.84473587 17.73608841 -26.05275299 17.21045807 -25.23677063 16.66889954 C-22.72392785 15.00294758 -20.20583769 13.34513086 -17.6875 11.6875 C-15.97555771 10.55457082 -14.26396529 9.42111277 -12.55273438 8.28710938 C-8.37251408 5.51860215 -4.18757095 2.75737489 0 0 Z " fill="#F8F9FD" transform="translate(525,192)"/>
</svg>
